<svg width="50" height="49" viewBox="0 0 50 49" fill="none" xmlns="http://www.w3.org/2000/svg">
<mask id="mask0_1418_1155" style="mask-type:alpha" maskUnits="userSpaceOnUse" x="0" y="0" width="50" height="49">
<rect width="49.0014" height="49" rx="24.5" fill="#2E3D4B"/>
</mask>
<g mask="url(#mask0_1418_1155)">
<path d="M19.313 31.6687V31.7377C19.2944 33.1743 18.0834 34.2548 15.6801 34.9792C18.5768 37.0799 21.4734 38.7603 24.3676 38.7603C27.2618 38.7603 30.1581 37.0779 33.0548 34.9775C30.6678 34.2528 29.4571 33.1712 29.4226 31.7325C29.4226 31.476 29.4247 31.1118 29.426 30.428C29.426 30.3195 29.426 30.2082 29.426 30.0942C29.5985 30.1187 29.5847 30.1032 29.426 30.0597C29.4309 28.2607 29.4384 25.8413 29.4491 23.383C31.713 20.4564 30.8812 17.0249 30.1733 17.1107C29.3029 17.2142 21.7679 10.084 20.3227 9.71915C18.8775 9.35432 15.2063 10.5333 14.5742 13.8227C13.9421 17.1121 13.6777 25.4013 16.0746 28.7107C16.7565 29.6533 17.8304 30.0211 19.2964 29.8142C19.2985 30.5039 19.3026 30.8887 19.3126 31.6684L19.313 31.6687Z" fill="#FFDCC5"/>
<path opacity="0.228" d="M19.311 29.8221C21.3226 29.6186 23.2644 28.9731 24.9974 27.9317C24.9974 27.9317 22.606 31.1011 19.311 31.7129V29.8221Z" fill="#FE9A5A"/>
<path d="M40.9324 39.3162C42.4307 42.3601 43.2931 49.3806 43.2931 49.3806H5.51758C5.51758 49.3806 6.37967 42.3594 7.87833 39.3162C9.377 36.273 18.1245 33.4492 18.1245 33.4492C19.8107 36.9086 29.0644 36.9082 30.68 33.4492C30.68 33.4492 39.4323 36.272 40.9324 39.3162Z" fill="#577999"/>
<path d="M31.4184 22.7968C32.5067 20.186 36.8668 14.8697 33.1081 11.561C31.8449 5.41666 24.8633 6.09702 20.2036 7.51465C17.0717 8.46778 14.7068 10.3506 14.2013 8.93262C11.0423 11.561 12.6244 14.1317 14.7068 14.8697C16.5972 15.5394 19.7935 16.2073 25.2285 15.5787C26.1992 15.4663 25.9961 18.4315 26.5148 18.7512C27.2931 19.2322 27.8972 16.208 30.0321 17.116C32.167 18.0239 30.8997 22.2347 28.6093 22.2347C27.8196 22.2347 27.4248 24.4003 29.5569 25.4245C31.1025 26.1841 30.7114 24.4931 31.4184 22.7968Z" fill="#192734"/>
</g>
</svg>
