<svg width="24" height="18" viewBox="0 0 24 18" fill="none" xmlns="http://www.w3.org/2000/svg">
<path d="M22 9.5V17C22 17.2652 21.8946 17.5196 21.7071 17.7071C21.5196 17.8946 21.2652 18 21 18H20C19.7348 18 19.4804 17.8946 19.2929 17.7071C19.1054 17.5196 19 17.2652 19 17V16H5V17C5 17.2652 4.89464 17.5196 4.70711 17.7071C4.51957 17.8946 4.26522 18 4 18H3C2.73478 18 2.48043 17.8946 2.29289 17.7071C2.10536 17.5196 2 17.2652 2 17V9.5L0.757 9.19C0.540753 9.13583 0.348809 9.01095 0.211655 8.83521C0.0745022 8.65946 5.86043e-06 8.44293 0 8.22L0 7.5C0 7.36739 0.0526784 7.24021 0.146447 7.14645C0.240215 7.05268 0.367392 7 0.5 7H2.375L4.513 1.298C4.65593 0.916693 4.91186 0.588102 5.24656 0.356153C5.58126 0.124204 5.97878 -5.06984e-05 6.386 1.55178e-08H17.614C18.0212 -5.06984e-05 18.4187 0.124204 18.7534 0.356153C19.0881 0.588102 19.3441 0.916693 19.487 1.298L21.625 7H23.5C23.6326 7 23.7598 7.05268 23.8536 7.14645C23.9473 7.24021 24 7.36739 24 7.5V8.22C24 8.44293 23.9255 8.65946 23.7883 8.83521C23.6512 9.01095 23.4592 9.13583 23.243 9.19L22 9.5ZM4 11V13C4 13.2652 4.10536 13.5196 4.29289 13.7071C4.48043 13.8946 4.73478 14 5 14H8.245C8.33134 13.9999 8.41618 13.9774 8.49125 13.9347C8.56631 13.892 8.62905 13.8307 8.67336 13.7566C8.71766 13.6825 8.74202 13.5981 8.74406 13.5118C8.7461 13.4255 8.72575 13.3401 8.685 13.264C7.88 11.754 6.318 11 4 11ZM20 11C17.683 11 16.121 11.755 15.314 13.264C15.2732 13.3402 15.2529 13.4257 15.2549 13.5121C15.257 13.5985 15.2815 13.6829 15.3259 13.757C15.3703 13.8311 15.4332 13.8925 15.5084 13.9351C15.5836 13.9777 15.6686 14 15.755 14H19C19.2652 14 19.5196 13.8946 19.7071 13.7071C19.8946 13.5196 20 13.2652 20 13V11ZM6 2L4.439 6.684C4.38896 6.83425 4.37531 6.99424 4.39919 7.1508C4.42308 7.30736 4.4838 7.456 4.57636 7.5845C4.66893 7.713 4.79069 7.81767 4.93162 7.88991C5.07256 7.96215 5.22863 7.99988 5.387 8H18.613C18.7714 7.99988 18.9274 7.96215 19.0684 7.88991C19.2093 7.81767 19.3311 7.713 19.4236 7.5845C19.5162 7.456 19.5769 7.30736 19.6008 7.1508C19.6247 6.99424 19.611 6.83425 19.561 6.684L18 2H6Z" fill="#2C3E50"/>
</svg>
