<svg width="21" height="20" viewBox="0 0 21 20" fill="none" xmlns="http://www.w3.org/2000/svg">
<path d="M21 10.0619C21 4.50335 16.2966 0 10.5 0C4.6994 0 0 4.50335 0 10.0619C0 15.0829 3.8384 19.246 8.85937 20V12.9711H6.19303V10.0626H8.85937V7.84454C8.85937 5.3234 10.4245 3.93108 12.8238 3.93108C13.9729 3.93108 15.1758 4.12728 15.1758 4.12728V6.60315H13.8495C12.5475 6.60315 12.1406 7.37981 12.1406 8.17533V10.0619H15.0524L14.5845 12.9705H12.1406V19.9994C17.1576 19.2454 21 15.0822 21 10.0613V10.0619Z" fill="#939EB4"/>
</svg>
