<svg width="21" height="20" viewBox="0 0 21 20" fill="none" xmlns="http://www.w3.org/2000/svg">
<path d="M10.4972 6.66525C8.56915 6.66525 6.99575 8.16376 6.99575 10C6.99575 11.8362 8.56915 13.3348 10.4972 13.3348C12.4252 13.3348 13.9986 11.8362 13.9986 10C13.9986 8.16376 12.4252 6.66525 10.4972 6.66525ZM20.9988 10C20.9988 8.61907 21.0119 7.25064 20.9305 5.87221C20.8491 4.27113 20.4656 2.85017 19.2363 1.67938C18.0043 0.506085 16.515 0.14334 14.8339 0.065788C13.3839 -0.0117644 11.9471 0.000744113 10.4998 0.000744113C9.04984 0.000744113 7.61303 -0.0117644 6.1657 0.065788C4.4846 0.14334 2.99262 0.508587 1.76331 1.67938C0.53138 2.85267 0.150505 4.27113 0.0690761 5.87221C-0.0123524 7.25314 0.000781304 8.62157 0.000781304 10C0.000781304 11.3784 -0.0123524 12.7494 0.0690761 14.1278C0.150505 15.7289 0.534006 17.1498 1.76331 18.3206C2.99525 19.4939 4.4846 19.8567 6.1657 19.9342C7.61565 20.0118 9.05247 19.9993 10.4998 19.9993C11.9497 19.9993 13.3866 20.0118 14.8339 19.9342C16.515 19.8567 18.007 19.4914 19.2363 18.3206C20.4682 17.1473 20.8491 15.7289 20.9305 14.1278C21.0146 12.7494 20.9988 11.3809 20.9988 10ZM10.4972 15.131C7.51584 15.131 5.10976 12.8394 5.10976 10C5.10976 7.16058 7.51584 4.86903 10.4972 4.86903C13.4785 4.86903 15.8846 7.16058 15.8846 10C15.8846 12.8394 13.4785 15.131 10.4972 15.131ZM16.1052 5.8572C15.4091 5.8572 14.847 5.32184 14.847 4.65889C14.847 3.99594 15.4091 3.46058 16.1052 3.46058C16.8013 3.46058 17.3634 3.99594 17.3634 4.65889C17.3636 4.81631 17.3312 4.97222 17.2681 5.1177C17.2049 5.26317 17.1122 5.39535 16.9954 5.50666C16.8785 5.61798 16.7397 5.70624 16.587 5.76639C16.4342 5.82654 16.2705 5.8574 16.1052 5.8572Z" fill="#939EB4"/>
</svg>
