<svg width="16" height="18" viewBox="0 0 16 18" fill="none" xmlns="http://www.w3.org/2000/svg">
<path d="M8 0.333344C8.54717 0.333344 9.08899 0.441118 9.59451 0.650512C10.1 0.859907 10.5594 1.16682 10.9463 1.55373C11.3332 1.94064 11.6401 2.39997 11.8495 2.9055C12.0589 3.41102 12.1667 3.95284 12.1667 4.50001V6.16668H14.6667C14.8877 6.16668 15.0996 6.25447 15.2559 6.41075C15.4122 6.56703 15.5 6.779 15.5 7.00001V17C15.5 17.221 15.4122 17.433 15.2559 17.5893C15.0996 17.7455 14.8877 17.8333 14.6667 17.8333H1.33333C1.11232 17.8333 0.900358 17.7455 0.744078 17.5893C0.587797 17.433 0.5 17.221 0.5 17V7.00001C0.5 6.779 0.587797 6.56703 0.744078 6.41075C0.900358 6.25447 1.11232 6.16668 1.33333 6.16668H3.83333V4.50001C3.83333 3.39494 4.27232 2.33513 5.05372 1.55373C5.83512 0.77233 6.89493 0.333344 8 0.333344ZM12.1667 8.66668H10.5V9.50001C10.5002 9.71241 10.5816 9.9167 10.7274 10.0712C10.8732 10.2256 11.0725 10.3185 11.2845 10.331C11.4965 10.3434 11.7053 10.2744 11.8682 10.1381C12.0311 10.0018 12.1357 9.80842 12.1608 9.59751L12.1667 9.50001V8.66668ZM5.5 8.66668H3.83333V9.50001C3.83357 9.71241 3.9149 9.9167 4.06071 10.0712C4.20651 10.2256 4.40579 10.3185 4.61783 10.331C4.82986 10.3434 5.03865 10.2744 5.20153 10.1381C5.3644 10.0018 5.46908 9.80842 5.49417 9.59751L5.5 9.50001V8.66668ZM8 2.00001C7.36232 1.99997 6.74874 2.24361 6.28478 2.68108C5.82083 3.11855 5.54158 3.71677 5.50417 4.35334L5.5 4.50001V6.16668H10.5V4.50001C10.5 3.86233 10.2564 3.24875 9.81893 2.78479C9.38146 2.32084 8.78324 2.04159 8.14667 2.00418L8 2.00001Z" fill="#939EB4"/>
</svg>
