<svg width="13" height="12" viewBox="0 0 13 12" fill="none" xmlns="http://www.w3.org/2000/svg">
<path d="M9.93479 11.3249L7.08225 9.27489C6.99723 9.21399 6.89528 9.18124 6.7907 9.18124C6.68612 9.18124 6.58416 9.21399 6.49914 9.27489L3.64781 11.3249C3.56386 11.3868 3.46238 11.4203 3.35808 11.4207C3.28128 11.4219 3.20529 11.4049 3.13637 11.371C3.06744 11.3371 3.00755 11.2874 2.96162 11.2258C2.91569 11.1642 2.88503 11.0927 2.87218 11.0169C2.85933 10.9412 2.86465 10.8635 2.8877 10.7903L3.97877 7.45644C4.0104 7.35994 4.01027 7.25584 3.97842 7.15941C3.94657 7.06298 3.88466 6.97929 3.80178 6.92061L0.92863 4.8597C0.848205 4.79834 0.788983 4.71336 0.759259 4.61666C0.729535 4.51996 0.730796 4.41639 0.762867 4.32045C0.794937 4.2245 0.85621 4.14099 0.938107 4.08161C1.02 4.02222 1.11842 3.98993 1.21958 3.98927H4.75949C4.86298 3.99006 4.96407 3.95813 5.04832 3.89804C5.13258 3.83795 5.19569 3.75277 5.22865 3.65468L6.31972 0.335403C6.35318 0.237554 6.41639 0.152615 6.50052 0.0924741C6.58464 0.0323331 6.68547 0 6.78888 0C6.89229 0 6.99311 0.0323331 7.07724 0.0924741C7.16136 0.152615 7.22458 0.237554 7.25804 0.335403L8.34911 3.65468C8.38207 3.75277 8.44518 3.83795 8.52944 3.89804C8.61369 3.95813 8.71478 3.99006 8.81827 3.98927H12.3582C12.4593 3.98993 12.5578 4.02222 12.6397 4.08161C12.7215 4.14099 12.7828 4.2245 12.8149 4.32045C12.847 4.41639 12.8482 4.51996 12.8185 4.61666C12.7888 4.71336 12.7296 4.79834 12.6491 4.8597L9.77598 6.92061C9.6931 6.97929 9.63119 7.06298 9.59934 7.15941C9.56749 7.25584 9.56736 7.35994 9.59899 7.45644L10.6901 10.7903C10.7131 10.8635 10.7184 10.9412 10.7056 11.0169C10.6927 11.0927 10.6621 11.1642 10.6161 11.2258C10.5702 11.2874 10.5103 11.3371 10.4414 11.371C10.3725 11.4049 10.2965 11.4219 10.2197 11.4207C10.117 11.4193 10.0174 11.3858 9.93479 11.3249Z" fill="#DFE2E9"/>
</svg>
