<svg width="13" height="12" viewBox="0 0 13 12" fill="none" xmlns="http://www.w3.org/2000/svg">
<path d="M9.19694 11.3249L6.3444 9.27489C6.25938 9.21399 6.15742 9.18124 6.05284 9.18124C5.94826 9.18124 5.84631 9.21399 5.76129 9.27489L2.90996 11.3249C2.82601 11.3868 2.72452 11.4203 2.62022 11.4207C2.54343 11.4219 2.46744 11.4049 2.39851 11.371C2.32959 11.3371 2.26969 11.2874 2.22376 11.2258C2.17783 11.1642 2.14718 11.0927 2.13433 11.0169C2.12148 10.9412 2.1268 10.8635 2.14985 10.7903L3.24092 7.45644C3.27254 7.35994 3.27242 7.25584 3.24057 7.15941C3.20871 7.06298 3.14681 6.97929 3.06392 6.92061L0.190776 4.8597C0.110351 4.79834 0.0511292 4.71336 0.0214051 4.61666C-0.00831906 4.51996 -0.00705763 4.41639 0.0250127 4.32045C0.0570831 4.2245 0.118356 4.14099 0.200253 4.08161C0.28215 4.02222 0.380568 3.98993 0.481728 3.98927H4.02164C4.12512 3.99006 4.22621 3.95813 4.31047 3.89804C4.39472 3.83795 4.45784 3.75277 4.4908 3.65468L5.58187 0.335403C5.61532 0.237554 5.67854 0.152615 5.76267 0.0924741C5.84679 0.0323331 5.94761 0 6.05103 0C6.15444 0 6.25526 0.0323331 6.33939 0.0924741C6.42351 0.152615 6.48673 0.237554 6.52018 0.335403L7.61125 3.65468C7.64421 3.75277 7.70733 3.83795 7.79158 3.89804C7.87584 3.95813 7.97693 3.99006 8.08041 3.98927H11.6203C11.7215 3.98993 11.8199 4.02222 11.9018 4.08161C11.9837 4.14099 12.045 4.2245 12.077 4.32045C12.1091 4.41639 12.1104 4.51996 12.0806 4.61666C12.0509 4.71336 11.9917 4.79834 11.9113 4.8597L9.03813 6.92061C8.95524 6.97929 8.89334 7.06298 8.86148 7.15941C8.82963 7.25584 8.82951 7.35994 8.86113 7.45644L9.9522 10.7903C9.97525 10.8635 9.98057 10.9412 9.96772 11.0169C9.95487 11.0927 9.92422 11.1642 9.87829 11.2258C9.83236 11.2874 9.77246 11.3371 9.70354 11.371C9.63461 11.4049 9.55862 11.4219 9.48183 11.4207C9.37919 11.4193 9.27956 11.3858 9.19694 11.3249Z" fill="#F2994A"/>
</svg>
