<svg width="20" height="20" viewBox="0 0 20 20" fill="none" xmlns="http://www.w3.org/2000/svg">
<path d="M10 0.3125C4.47581 0.3125 0 4.64844 0 10C0 15.3516 4.47581 19.6875 10 19.6875C15.5242 19.6875 20 15.3516 20 10C20 4.64844 15.5242 0.3125 10 0.3125ZM14.9113 6.94922L13.2702 14.4414C13.1492 14.9727 12.8226 15.1016 12.3669 14.8516L9.86693 13.0664L8.66129 14.1914C8.52823 14.3203 8.41532 14.4297 8.15726 14.4297L8.33468 11.9648L12.9677 7.91016C13.1694 7.73828 12.9234 7.64062 12.6573 7.8125L6.93145 11.3047L4.46371 10.5586C3.92742 10.3945 3.91532 10.0391 4.57661 9.78906L14.2177 6.1875C14.6653 6.03125 15.0565 6.29297 14.9113 6.94922Z" fill="#939EB4"/>
</svg>
