<svg width="25" height="24" viewBox="0 0 25 24" fill="none" xmlns="http://www.w3.org/2000/svg">
<path d="M18.2805 5H24.1139V7.33333H21.7805V22.5C21.7805 22.8094 21.6576 23.1062 21.4388 23.325C21.22 23.5437 20.9233 23.6667 20.6139 23.6667H4.28052C3.9711 23.6667 3.67435 23.5437 3.45556 23.325C3.23677 23.1062 3.11385 22.8094 3.11385 22.5V7.33333H0.780518V5H6.61385V1.49999C6.61385 1.19058 6.73677 0.893829 6.95556 0.675037C7.17435 0.456245 7.4711 0.333328 7.78052 0.333328H17.1139C17.4233 0.333328 17.72 0.456245 17.9388 0.675037C18.1576 0.893829 18.2805 1.19058 18.2805 1.49999V5ZM8.94718 10.8333V17.8333H11.2805V10.8333H8.94718ZM13.6139 10.8333V17.8333H15.9472V10.8333H13.6139ZM8.94718 2.66666V5H15.9472V2.66666H8.94718Z" fill="#2C3E50"/>
</svg>
