<svg width="19" height="18" viewBox="0 0 19 18" fill="none" xmlns="http://www.w3.org/2000/svg">
<path d="M16.5003 10.5V13H19.0003V14.6667H16.5003V17.1667H14.8337V14.6667H12.3337V13H14.8337V10.5H16.5003ZM16.507 0.5C16.9637 0.5 17.3337 0.870833 17.3337 1.3275V9.11833C16.7984 8.92925 16.2347 8.83286 15.667 8.83333V2.16667H2.33366L2.33449 13.8333L10.0778 6.08917C10.2211 5.9454 10.412 5.85894 10.6146 5.84605C10.8172 5.83316 11.0175 5.89472 11.1778 6.01917L11.2553 6.09L14.2103 9.04833C13.5642 9.24522 12.9646 9.57092 12.4478 10.0058C11.9309 10.4407 11.5075 10.9757 11.203 11.5787C10.8986 12.1816 10.7194 12.84 10.6762 13.5141C10.6331 14.1881 10.7269 14.864 10.952 15.5008L1.49366 15.5C1.27434 15.4998 1.06407 15.4125 0.909067 15.2573C0.754061 15.1022 0.666992 14.8918 0.666992 14.6725V1.3275C0.668517 1.10865 0.756076 0.899181 0.910753 0.744348C1.06543 0.589515 1.27481 0.501746 1.49366 0.5H16.507ZM5.66699 3.83333C6.10902 3.83333 6.53294 4.00893 6.84551 4.32149C7.15807 4.63405 7.33366 5.05797 7.33366 5.5C7.33366 5.94203 7.15807 6.36595 6.84551 6.67851C6.53294 6.99107 6.10902 7.16667 5.66699 7.16667C5.22497 7.16667 4.80104 6.99107 4.48848 6.67851C4.17592 6.36595 4.00033 5.94203 4.00033 5.5C4.00033 5.05797 4.17592 4.63405 4.48848 4.32149C4.80104 4.00893 5.22497 3.83333 5.66699 3.83333Z" fill="#2C3E50"/>
</svg>
